<svg width="24" height="24" viewBox="0 0 24 24" fill="none" xmlns="http://www.w3.org/2000/svg">
<path d="M5.27083 11.831C3.15274 11.4341 1.55945 9.71779 1.55945 7.66072C1.55945 5.30978 3.64049 3.40396 6.2076 3.40396C6.81554 3.40396 7.39622 3.51084 7.92845 3.70521C8.76684 2.45321 10.2751 1.61803 11.9963 1.61803C13.7186 1.61803 15.2277 2.45426 16.0658 3.70757C16.5998 3.51172 17.1826 3.40396 17.7931 3.40396C20.3602 3.40396 22.4412 5.30978 22.4412 7.66072C22.4412 9.71769 20.8481 11.4339 18.7301 11.8309C18.7948 12.7352 18.8385 13.6534 18.8385 14.5831C18.8385 16.4106 18.6693 18.1937 18.5059 19.9138C18.4838 20.1465 18.4618 20.3779 18.4404 20.6081C18.3638 21.431 17.7213 22.0951 16.8979 22.1657C13.5364 22.4542 10.4646 22.4542 7.10311 22.1657C6.27975 22.0951 5.63721 21.431 5.56059 20.6081C5.53917 20.3779 5.51719 20.1465 5.49511 19.9138C5.33177 18.1937 5.16245 16.4106 5.16245 14.5831C5.16245 13.6534 5.20627 12.7353 5.27083 11.831Z" stroke="black" stroke-width="1.5" stroke-linecap="round" stroke-linejoin="round"/>
<path d="M18.7068 17.6403C18.648 18.4089 18.576 19.1673 18.5052 19.9137C18.4831 20.1463 18.4612 20.3777 18.4398 20.6079C18.3631 21.4308 17.7206 22.0947 16.8972 22.1655C13.5357 22.4541 10.4639 22.4541 7.10243 22.1655C6.27907 22.0947 5.63652 21.4308 5.55991 20.6079C5.53848 20.3777 5.51651 20.1463 5.49443 19.9137C5.42354 19.1673 5.35154 18.409 5.29272 17.6403C7.46419 17.5819 9.7065 17.525 11.9999 17.525C14.2932 17.525 16.5355 17.5819 18.7068 17.6403Z" stroke="black" stroke-width="1.5" stroke-linecap="round" stroke-linejoin="round"/>
</svg>
