<svg xmlns="http://www.w3.org/2000/svg" fill="none" viewBox="0 0 24 24" id="Egg--Streamline-Rounded-Material" height="24" width="24">
  <desc>
    Egg Streamline Icon: https://streamlinehq.com
  </desc>
  <path fill="#000000" d="M12 21c-1.95 0 -3.60415 -0.67915 -4.9625 -2.0375C5.67915 17.60415 5 15.95 5 14c0 -1.28335 0.2125 -2.575 0.6375 -3.875 0.425 -1.3 0.975 -2.47915 1.65 -3.5375C7.9625 5.52915 8.71665 4.666665 9.55 4c0.83335 -0.666665 1.65 -1 2.45 -1 0.81665 0 1.6375 0.333335 2.4625 1 0.825 0.666665 1.575 1.52915 2.25 2.5875s1.225 2.2375 1.65 3.5375C18.7875 11.425 19 12.71665 19 14c0 1.95 -0.67915 3.60415 -2.0375 4.9625C15.60415 20.32085 13.95 21 12 21Zm0 -1c1.66 0 3.075 -0.585 4.245 -1.755S18 15.66 18 14c0 -1.1 -0.1875 -2.2375 -0.5625 -3.4125 -0.375 -1.175 -0.85975 -2.24865 -1.45425 -3.221 -0.59465 -0.97215 -1.24465 -1.77635 -1.95 -2.4125C13.32775 4.318 12.65 4 12 4c-0.65 0 -1.32915 0.3125 -2.0375 0.9375s-1.35835 1.425 -1.95 2.4c-0.59165 0.975 -1.075 2.05415 -1.45 3.2375S6 12.9 6 14c0 1.66 0.585 3.075 1.755 4.245S10.34 20 12 20Zm0.625 -2.025c0.14165 0 0.2604 -0.0479 0.35625 -0.14375 0.09585 -0.09585 0.14375 -0.2146 0.14375 -0.35625s-0.0479 -0.2604 -0.14375 -0.35625c-0.09585 -0.09585 -0.2146 -0.14375 -0.35625 -0.14375 -0.97215 0 -1.7986 -0.34025 -2.47925 -1.02075 -0.6805 -0.68065 -1.02075 -1.5071 -1.02075 -2.47925 0 -0.14165 -0.0479 -0.2604 -0.14375 -0.35625 -0.09585 -0.09585 -0.2146 -0.14375 -0.35625 -0.14375s-0.2604 0.0479 -0.35625 0.14375c-0.09585 0.09585 -0.14375 0.2146 -0.14375 0.35625 0 1.245 0.43875 2.30625 1.31625 3.18375S11.38 17.975 12.625 17.975Z" stroke-width="0.5"></path>
</svg>