<svg width="16" height="16" viewBox="0 0 16 16" fill="none" xmlns="http://www.w3.org/2000/svg">
<g clip-path="url(#clip0_417_1287)">
<path d="M0.633301 13.3333V11.7667C0.633301 11.3778 0.733301 11.025 0.933301 10.7083C1.1333 10.3917 1.41108 10.1556 1.76663 10C2.57775 9.64444 3.3083 9.3889 3.9583 9.23334C4.6083 9.07777 5.27773 9 5.96663 9C6.65553 9 7.3222 9.07777 7.96663 9.23334C8.61107 9.3889 9.33887 9.64444 10.15 10C10.5055 10.1556 10.7861 10.3917 10.9916 10.7083C11.1972 11.025 11.3 11.3778 11.3 11.7667V13.3333H0.633301ZM12.3 13.3333V11.7667C12.3 11.0667 12.1222 10.4917 11.7666 10.0417C11.4111 9.59167 10.9444 9.22777 10.3666 8.95C11.1333 9.0389 11.8555 9.16944 12.5333 9.34167C13.2111 9.5139 13.7611 9.7111 14.1833 9.93334C14.55 10.1444 14.8389 10.4056 15.05 10.7167C15.2611 11.0278 15.3666 11.3778 15.3666 11.7667V13.3333H12.3ZM5.96663 7.98334C5.2333 7.98334 4.6333 7.75 4.16663 7.28334C3.69997 6.81667 3.46663 6.21667 3.46663 5.48334C3.46663 4.75 3.69997 4.15 4.16663 3.68334C4.6333 3.21667 5.2333 2.98334 5.96663 2.98334C6.69997 2.98334 7.29997 3.21667 7.76663 3.68334C8.2333 4.15 8.46663 4.75 8.46663 5.48334C8.46663 6.21667 8.2333 6.81667 7.76663 7.28334C7.29997 7.75 6.69997 7.98334 5.96663 7.98334ZM11.9666 5.48334C11.9666 6.21667 11.7333 6.81667 11.2666 7.28334C10.8 7.75 10.2 7.98334 9.46663 7.98334C9.3444 7.98334 9.2083 7.975 9.0583 7.95834C8.9083 7.94167 8.7722 7.9111 8.64997 7.86667C8.91663 7.5889 9.1194 7.24724 9.2583 6.84167C9.3972 6.4361 9.46663 5.98334 9.46663 5.48334C9.46663 4.98334 9.3972 4.54167 9.2583 4.15834C9.1194 3.775 8.91663 3.42224 8.64997 3.1C8.7722 3.06667 8.9083 3.03889 9.0583 3.01667C9.2083 2.99445 9.3444 2.98334 9.46663 2.98334C10.2 2.98334 10.8 3.21667 11.2666 3.68334C11.7333 4.15 11.9666 4.75 11.9666 5.48334ZM1.6333 12.3333H10.3V11.7667C10.3 11.5889 10.2472 11.4167 10.1416 11.25C10.0361 11.0833 9.90553 10.9667 9.74997 10.9C8.94997 10.5444 8.27773 10.3056 7.7333 10.1833C7.18887 10.0611 6.59997 10 5.96663 10C5.3333 10 4.74163 10.0611 4.19163 10.1833C3.64163 10.3056 2.96663 10.5444 2.16663 10.9C2.01108 10.9667 1.8833 11.0833 1.7833 11.25C1.6833 11.4167 1.6333 11.5889 1.6333 11.7667V12.3333ZM5.96663 6.98334C6.39997 6.98334 6.7583 6.84167 7.04163 6.55834C7.32497 6.275 7.46663 5.91667 7.46663 5.48334C7.46663 5.05 7.32497 4.69167 7.04163 4.40834C6.7583 4.125 6.39997 3.98334 5.96663 3.98334C5.5333 3.98334 5.17497 4.125 4.89163 4.40834C4.6083 4.69167 4.46663 5.05 4.46663 5.48334C4.46663 5.91667 4.6083 6.275 4.89163 6.55834C5.17497 6.84167 5.5333 6.98334 5.96663 6.98334Z" fill="black"/>
</g>
<defs>
<clipPath id="clip0_417_1287">
<rect width="16" height="16" fill="white"/>
</clipPath>
</defs>
</svg>
