<svg width="208" height="261" viewBox="0 0 208 261" fill="none" xmlns="http://www.w3.org/2000/svg">
<path d="M44.9287 109.502C24.8461 108.969 13.3888 114.101 5.92871 134.002C28.7571 153.004 41.0646 164.273 44.9287 207.002C56.7658 236.455 65.2378 251.151 102.929 255.002C103.969 256.99 149.304 251.541 162.429 207.002C166.201 170.859 171.041 152.332 200.429 132.502C190.298 116.547 185.47 105.826 165.929 109.502C164.743 109.581 163.579 109.713 162.429 109.899M44.9287 109.502C60.0209 113.843 67.0545 119.317 80.9287 132.502L82.4287 49.0018M44.9287 109.502V49.0018C44.9287 28.5018 82.4287 26.5018 82.4287 49.0018M82.4287 49.0018V24.5018C82.4287 -1.99817 123.429 -0.99823 123.429 24.5018V50.5018M123.429 50.5018C128.429 24.5018 162.429 32.0018 162.429 50.5018V109.899M123.429 50.5018V132.502C141.148 118.674 151.17 111.713 162.429 109.899" stroke="black" stroke-width="10"/>
<circle cx="102.929" cy="155.002" r="25" stroke="black" stroke-width="10"/>
</svg>
