<svg width="100" height="100" viewBox="0 0 100 100" fill="none" xmlns="http://www.w3.org/2000/svg">
<path d="M85 41.3397C91.6667 45.1887 91.6667 54.8113 85 58.6603L40 84.641C33.3333 88.49 25 83.6788 25 75.9808V24.0192C25 16.3212 33.3333 11.51 40 15.359L85 41.3397Z" fill="#FD6941"/>
<path d="M61.7232 45.8898C62.1139 45.4991 62.3334 44.9692 62.3334 44.4167C62.3334 41.654 61.2359 39.0045 59.2824 37.051C57.3289 35.0975 54.6794 34 51.9167 34H39.4167C38.8642 34 38.3343 34.2195 37.9436 34.6102C37.5529 35.0009 37.3334 35.5308 37.3334 36.0833V42.3333H25V46.5H60.25C60.8026 46.5 61.3325 46.2805 61.7232 45.8898ZM41.5 42.3333V38.1667H51.9167C53.2097 38.166 54.4711 38.5664 55.5271 39.3126C56.583 40.0589 57.3815 41.1143 57.8125 42.3333H41.5Z" fill="white"/>
<path d="M61.7232 66.7231C62.1139 66.3324 62.3334 65.8025 62.3334 65.25C62.3334 64.6975 62.1139 64.1676 61.7232 63.7769C61.3325 63.3862 60.8026 63.1667 60.25 63.1667H48.875L47.4792 61.0833H60.25C60.8026 61.0833 61.3325 60.8638 61.7232 60.4731C62.1139 60.0824 62.3334 59.5525 62.3334 59C62.3334 58.4475 62.1139 57.9176 61.7232 57.5269C61.3325 57.1362 60.8026 56.9167 60.25 56.9167H47.4792L48.875 54.8333H60.25C60.8026 54.8333 61.3325 54.6138 61.7232 54.2231C62.1139 53.8324 62.3334 53.3025 62.3334 52.75C62.3334 52.1975 62.1139 51.6676 61.7232 51.2769C61.3325 50.8862 60.8026 50.6667 60.25 50.6667H47.75C47.4069 50.6684 47.0695 50.7549 46.7678 50.9185C46.4662 51.082 46.2096 51.3176 46.0209 51.6042L42.4584 56.9167H25V61.0833H42.4584L46.0209 66.3958C46.2096 66.6824 46.4662 66.9179 46.7678 67.0815C47.0695 67.245 47.4069 67.3316 47.75 67.3333H60.25C60.8026 67.3333 61.3325 67.1138 61.7232 66.7231Z" fill="white"/>
</svg>
