<svg width="28" height="27" viewBox="0 0 28 27" fill="none" xmlns="http://www.w3.org/2000/svg">
<g clip-path="url(#clip0_318_1259)">
<path d="M23.1668 15L15.2502 7.08333L11.0835 11.25L4.8335 5" stroke="black" stroke-width="2" stroke-linecap="round" stroke-linejoin="round"/>
<path d="M18.1665 15H23.1665V10" stroke="black" stroke-width="2" stroke-linecap="round" stroke-linejoin="round"/>
</g>
<path d="M0.632102 25V17.7273H2.16974V20.9339H2.26562L4.88281 17.7273H6.72585L4.02699 20.9837L6.75781 25H4.91832L2.92614 22.0099L2.16974 22.9332V25H0.632102ZM13.5334 20.2734H11.978C11.9496 20.0722 11.8916 19.8935 11.804 19.7372C11.7164 19.5786 11.6039 19.4437 11.4666 19.3324C11.3293 19.2211 11.1707 19.1359 10.9908 19.0767C10.8132 19.0175 10.6203 18.9879 10.4119 18.9879C10.0355 18.9879 9.70762 19.0814 9.42827 19.2685C9.14891 19.4531 8.93229 19.723 8.77841 20.0781C8.62453 20.4309 8.54759 20.8594 8.54759 21.3636C8.54759 21.8821 8.62453 22.3177 8.77841 22.6705C8.93466 23.0232 9.15246 23.2895 9.43182 23.4695C9.71117 23.6494 10.0343 23.7393 10.4013 23.7393C10.6072 23.7393 10.7978 23.7121 10.973 23.6577C11.1506 23.6032 11.308 23.5239 11.4453 23.4197C11.5826 23.3132 11.6963 23.1842 11.7862 23.0327C11.8786 22.8812 11.9425 22.7083 11.978 22.5142L13.5334 22.5213C13.4931 22.8551 13.3925 23.1771 13.2315 23.4872C13.0729 23.795 12.8587 24.0708 12.5888 24.3146C12.3213 24.5561 12.0017 24.7479 11.63 24.8899C11.2607 25.0296 10.8428 25.0994 10.3764 25.0994C9.72775 25.0994 9.14773 24.9527 8.63636 24.6591C8.12737 24.3655 7.72491 23.9406 7.42898 23.3842C7.13542 22.8279 6.98864 22.1544 6.98864 21.3636C6.98864 20.5705 7.13778 19.8958 7.43608 19.3395C7.73438 18.7831 8.1392 18.3594 8.65057 18.0682C9.16193 17.7746 9.73722 17.6278 10.3764 17.6278C10.7978 17.6278 11.1884 17.687 11.5483 17.8054C11.9105 17.9238 12.2313 18.0966 12.5107 18.3239C12.79 18.5488 13.0173 18.8246 13.1925 19.1513C13.37 19.478 13.4837 19.852 13.5334 20.2734ZM15.7528 25H14.1051L16.6158 17.7273H18.5973L21.1044 25H19.4567L17.6349 19.3892H17.5781L15.7528 25ZM15.6499 22.1413H19.5419V23.3416H15.6499V22.1413ZM21.9798 25V17.7273H23.5174V23.7322H26.6353V25H21.9798Z" fill="black"/>
<defs>
<clipPath id="clip0_318_1259">
<rect width="20" height="20" fill="white" transform="translate(4)"/>
</clipPath>
</defs>
</svg>
