<svg width="20" height="20" viewBox="0 0 20 20" fill="none" xmlns="http://www.w3.org/2000/svg">
<g clip-path="url(#clip0_192_1347)">
<path d="M19.5305 2.5448C19.5202 2.37606 19.3855 2.24163 19.2167 2.23181C15.0227 1.98142 11.6683 3.24171 10.2427 5.59453C9.2712 7.19869 9.31044 9.09329 10.3462 10.9537C9.61525 11.7566 9.13258 12.7542 8.95655 13.8256L6.996 11.8651C7.71629 10.5297 7.73131 9.16674 7.03105 8.00995C5.99444 6.29812 3.56566 5.38337 0.531767 5.56115C0.36395 5.57174 0.23021 5.70548 0.219612 5.87329C0.0418315 8.9055 0.956592 11.3343 2.66843 12.3709C3.21786 12.7082 3.84989 12.8867 4.49461 12.8867C5.20621 12.8746 5.90357 12.6853 6.5236 12.3358L8.87809 14.6928V17.2243C8.87809 17.4813 9.1563 17.6419 9.37887 17.5134C9.48217 17.4537 9.5458 17.3435 9.5458 17.2243V14.7629C9.54266 13.5304 9.99746 12.3406 10.822 11.4244C11.7809 11.9552 12.7475 12.2223 13.6797 12.2223C14.558 12.2225 15.4191 11.9795 16.1678 11.5204C18.5198 10.094 19.7776 6.73964 19.5305 2.5448ZM3.01396 11.7992C1.57255 10.9278 0.782153 8.85209 0.872294 6.21382C3.51057 6.12285 5.58631 6.91408 6.46434 8.35548C7.00518 9.24937 7.01436 10.306 6.50273 11.3677L4.10566 8.97562C3.91522 8.80304 3.60938 8.90135 3.55515 9.15256C3.53245 9.25775 3.56184 9.36744 3.6341 9.44718L6.02699 11.8401C4.9645 12.3517 3.90785 12.3425 3.01396 11.7992ZM15.8214 10.9478C14.4818 11.7591 12.8927 11.7482 11.3077 10.927L16.1252 6.10866C16.3024 5.92251 16.2116 5.61435 15.9618 5.55398C15.8518 5.52739 15.7358 5.55836 15.6536 5.63626L10.8353 10.4546C10.014 8.86878 10.0007 7.28298 10.8144 5.9409C12.0756 3.85433 15.0778 2.72508 18.8795 2.88282C19.0381 6.68456 17.9046 9.68672 15.8214 10.9478Z" fill="#00B015"/>
</g>
<defs>
<clipPath id="clip0_192_1347">
<rect width="19.7586" height="19.7585" fill="white"/>
</clipPath>
</defs>
</svg>
