<svg xmlns="http://www.w3.org/2000/svg" fill="none" viewBox="0 0 24 24" id="Receipt-Long--Streamline-Rounded-Material" height="24" width="24">
  <desc>
    Receipt Long Streamline Icon: https://streamlinehq.com
  </desc>
  <path fill="#000000" d="M5.5498 21.9999c-0.72916 0 -1.34891 -0.25525 -1.859245 -0.76575 -0.5105 -0.51035 -0.76575 -1.1301 -0.76575 -1.85925v-2.375c0 -0.2125 0.071915 -0.39065 0.21575 -0.5345 0.143665 -0.14365 0.32175 -0.2155 0.53425 -0.2155h2.424995v-13.8c0 -0.0875 0.0375 -0.146915 0.1125 -0.17825 0.075 -0.031165 0.14585 -0.013415 0.2125 0.05325l0.9 0.9c0.07735 0.083335 0.1675 0.125 0.2705 0.125 0.103 0 0.19615 -0.041665 0.2795 -0.125l0.95 -0.95c0.07735 -0.08333 0.1675 -0.125 0.2705 -0.125 0.103 0 0.19615 0.04167 0.2795 0.125l0.925 0.95c0.07735 0.083335 0.1675 0.125 0.2705 0.125 0.103 0 0.19615 -0.041665 0.2795 -0.125l0.95 -0.95c0.07735 -0.08333 0.1675 -0.125 0.2705 -0.125 0.103 0 0.19615 0.04167 0.2795 0.125l0.95 0.95c0.07735 0.083335 0.1675 0.125 0.2705 0.125 0.103 0 0.19615 -0.041665 0.2795 -0.125l0.95 -0.95c0.07735 -0.08333 0.1675 -0.125 0.2705 -0.125 0.103 0 0.19615 0.04167 0.2795 0.125l0.95 0.95c0.07735 0.083335 0.1675 0.125 0.2705 0.125 0.103 0 0.19615 -0.041665 0.2795 -0.125l0.95 -0.95c0.07735 -0.08333 0.1675 -0.125 0.2705 -0.125 0.103 0 0.19615 0.04167 0.2795 0.125l0.95 0.95c0.07735 0.083335 0.1675 0.125 0.2705 0.125 0.103 0 0.19615 -0.041665 0.2795 -0.125l0.9 -0.9c0.06665 -0.066665 0.1375 -0.084415 0.2125 -0.05325 0.075 0.031335 0.1125 0.09075 0.1125 0.17825v16.925c0 0.72915 -0.25515 1.3489 -0.7655 1.85925 -0.5105 0.5105 -1.13035 0.76575 -1.8595 0.76575h-12.9Zm12.9 -1.5c0.33335 0 0.60415 -0.10415 0.8125 -0.3125 0.20835 -0.20835 0.3125 -0.47915 0.3125 -0.8125v-14.875h-11.975v11.75h8.975c0.2125 0 0.39065 0.07185 0.5345 0.2155 0.14365 0.14385 0.2155 0.322 0.2155 0.5345v2.37125c0 0.33585 0.10415 0.6079 0.3125 0.81625 0.20835 0.20835 0.47915 0.3125 0.8125 0.3125Zm-8.775 -13.55h4.5c0.2125 0 0.39065 0.07235 0.5345 0.217 0.14365 0.1445 0.2155 0.32365 0.2155 0.5375 0 0.21365 -0.07185 0.39135 -0.2155 0.533 -0.14385 0.14165 -0.322 0.2125 -0.5345 0.2125h-4.5c-0.2125 0 -0.3906 -0.07235 -0.53425 -0.217 -0.14385 -0.1445 -0.21575 -0.32365 -0.21575 -0.5375 0 -0.21365 0.0719 -0.39135 0.21575 -0.533 0.14365 -0.14165 0.32175 -0.2125 0.53425 -0.2125Zm0 3.35h4.5c0.2125 0 0.39065 0.07235 0.5345 0.217 0.14365 0.1445 0.2155 0.32365 0.2155 0.5375 0 0.21365 -0.07185 0.39135 -0.2155 0.533 -0.14385 0.14165 -0.322 0.2125 -0.5345 0.2125h-4.5c-0.2125 0 -0.3906 -0.07235 -0.53425 -0.217 -0.14385 -0.1445 -0.21575 -0.32365 -0.21575 -0.5375 0 -0.21365 0.0719 -0.39135 0.21575 -0.533 0.14365 -0.14165 0.32175 -0.2125 0.53425 -0.2125Zm7.575 -1.85c-0.2 0 -0.375 -0.075 -0.525 -0.225 -0.15 -0.15 -0.225 -0.325 -0.225 -0.525s0.075 -0.375 0.225 -0.525c0.15 -0.15 0.325 -0.225 0.525 -0.225s0.375 0.075 0.525 0.225c0.15 0.15 0.225 0.325 0.225 0.525s-0.075 0.375 -0.225 0.525c-0.15 0.15 -0.325 0.225 -0.525 0.225Zm0 3.225c-0.2 0 -0.375 -0.075 -0.525 -0.225 -0.15 -0.15 -0.225 -0.325 -0.225 -0.525s0.075 -0.375 0.225 -0.525c0.15 -0.15 0.325 -0.225 0.525 -0.225s0.375 0.075 0.525 0.225c0.15 0.15 0.225 0.325 0.225 0.525s-0.075 0.375 -0.225 0.525c-0.15 0.15 -0.325 0.225 -0.525 0.225Zm-11.725 8.825h10.3v-2.75H4.424805v1.625c0 0.33335 0.105415 0.60415 0.31625 0.8125 0.210835 0.20835 0.472095 0.3125 0.783745 0.3125Z" stroke-width="0.5"></path>
</svg>