<svg width="16" height="16" viewBox="0 0 16 16" fill="none" xmlns="http://www.w3.org/2000/svg">
<path d="M11.0242 2.33312C10.8792 1.00701 9.76013 0.00208125 8.42613 0C8.2026 1.25e-05 8.0629 0.241988 8.17466 0.435563C8.22654 0.5254 8.32239 0.580737 8.42613 0.580737C9.44107 0.580987 10.3003 1.32989 10.4391 2.33529C8.16133 2.50029 6.3967 4.39475 6.39354 6.67849C6.39354 10.2174 4.4546 12.5832 0.629708 13.7105C-0.0145041 13.8967 -0.215579 14.7105 0.267771 15.1753C0.393921 15.2966 0.55369 15.3771 0.726258 15.4063C1.79943 15.5909 2.88655 15.6825 3.97549 15.6799C4.8211 15.6818 5.66585 15.626 6.50388 15.513C8.91613 15.1798 10.8739 14.3943 12.3251 13.177C14.1696 11.63 15.1046 9.44354 15.1046 6.67849C15.1013 4.38138 13.3166 2.48072 11.0242 2.33312ZM10.7491 2.90369C12.4538 2.90606 13.946 4.04896 14.3925 5.69414L13.072 6.35474L10.879 5.25786C10.7972 5.21694 10.7009 5.21694 10.6191 5.25786L8.42613 6.35474L7.10567 5.69414C7.55214 4.04896 9.04439 2.90606 10.7491 2.90369ZM11.9519 12.732C10.103 14.2833 6.08066 15.7642 0.827883 14.8372C0.606865 14.8038 0.504883 14.5436 0.644315 14.3689C0.682483 14.3211 0.73479 14.2865 0.793765 14.2702C4.83716 13.0768 6.97428 10.4533 6.97428 6.67849C6.97444 6.54781 6.98122 6.41722 6.9946 6.28723L8.29618 6.94056C8.37798 6.98149 8.47428 6.98149 8.55606 6.94056L10.7491 5.84223L12.9421 6.93911C13.0239 6.98003 13.1202 6.98003 13.202 6.93911L14.5036 6.28578C14.517 6.41625 14.5238 6.54733 14.5239 6.67849C14.5239 9.26424 13.6586 11.3005 11.9519 12.732Z" fill="#E5090D"/>
</svg>
