<svg width="22" height="22" viewBox="0 0 22 22" fill="none" xmlns="http://www.w3.org/2000/svg">
<path d="M2.2915 13.75C1.91338 13.75 1.58972 13.6153 1.32052 13.346C1.05118 13.0768 0.916504 12.7531 0.916504 12.375V3.20831C0.916504 2.83019 1.05118 2.50645 1.32052 2.2371C1.58972 1.96791 1.91338 1.83331 2.2915 1.83331H19.7082C20.0863 1.83331 20.41 1.96791 20.6794 2.2371C20.9486 2.50645 21.0832 2.83019 21.0832 3.20831V12.375C21.0832 12.7531 20.9486 13.0768 20.6794 13.346C20.41 13.6153 20.0863 13.75 19.7082 13.75H2.2915ZM2.2915 3.20831V12.375H19.7082V3.20831H2.2915ZM18.6082 16.1333L3.50609 16.9125C3.30748 16.9277 3.13942 16.8743 3.00192 16.7521C2.86442 16.6298 2.78803 16.4694 2.77275 16.2708C2.75748 16.0722 2.81477 15.9041 2.94463 15.7666C3.07449 15.6291 3.23873 15.5527 3.43734 15.5375L18.5394 14.7583C18.738 14.7431 18.9061 14.7965 19.0436 14.9187C19.1811 15.041 19.2575 15.2014 19.2728 15.4C19.288 15.5986 19.2307 15.7666 19.1009 15.9041C18.971 16.0416 18.8068 16.1181 18.6082 16.1333ZM18.5623 19.2271H3.43734C3.23873 19.2271 3.07449 19.1621 2.94463 19.0323C2.81477 18.9024 2.74984 18.7382 2.74984 18.5396C2.74984 18.341 2.81477 18.1767 2.94463 18.0469C3.07449 17.917 3.23873 17.8521 3.43734 17.8521H18.5623C18.7609 17.8521 18.9252 17.917 19.055 18.0469C19.1849 18.1767 19.2498 18.341 19.2498 18.5396C19.2498 18.7382 19.1849 18.9024 19.055 19.0323C18.9252 19.1621 18.7609 19.2271 18.5623 19.2271ZM9.61865 10.3125C10.7025 10.3125 11.7459 10.1253 12.7491 9.75102C13.7524 9.3767 14.6359 8.79998 15.3998 8.02081C15.4609 8.46388 15.6557 8.83435 15.9842 9.13227C16.3127 9.43019 16.7061 9.63263 17.1644 9.73956C17.2867 9.77013 17.4356 9.78159 17.6113 9.77394C17.787 9.76628 17.8748 9.65555 17.8748 9.44165V6.14165C17.8748 5.92774 17.787 5.81701 17.6113 5.80935C17.4356 5.8017 17.2867 5.81316 17.1644 5.84373C16.6908 5.96597 16.2859 6.17222 15.9498 6.46248C15.6137 6.75274 15.4228 7.12706 15.3769 7.5854C14.6005 6.84244 13.7178 6.27099 12.7289 5.871C11.74 5.47088 10.7034 5.27081 9.61934 5.27081C8.46191 5.27081 7.42864 5.44649 6.51963 5.7979C5.61062 6.1493 4.75124 6.73748 3.9415 7.56248C3.91095 7.59305 3.88039 7.66561 3.84984 7.78019C3.84984 7.81837 3.88039 7.89858 3.9415 8.02081C4.75124 8.84581 5.61062 9.43399 6.51963 9.7854C7.42864 10.1368 8.46168 10.3125 9.61865 10.3125Z" fill="#FD6941"/>
</svg>
