<svg width="24" height="24" viewBox="0 0 24 24" fill="none" xmlns="http://www.w3.org/2000/svg">
<path d="M6 20L8 15H11.25V10.975C8.6 10.8917 6.39585 10.5167 4.6375 9.85C2.87916 9.18335 2 8.4 2 7.5C2 6.53335 2.975 5.70835 4.925 5.025C6.875 4.34167 9.23335 4 12 4C14.7667 4 17.125 4.34167 19.075 5.025C21.025 5.70835 22 6.53335 22 7.5C22 8.4 21.1208 9.18335 19.3625 9.85C17.6041 10.5167 15.4 10.8917 12.75 10.975V15H16L18 20H16.5L15.125 16.5H8.9L7.5 20H6ZM12 9.5C13.8 9.5 15.4833 9.31665 17.05 8.95C18.6166 8.58335 19.8083 8.1 20.625 7.5C19.8083 6.9 18.6166 6.41665 17.05 6.05C15.4833 5.68335 13.8 5.5 12 5.5C10.2 5.5 8.51665 5.68335 6.95 6.05C5.38335 6.41665 4.19166 6.9 3.375 7.5C4.19166 8.1 5.38335 8.58335 6.95 8.95C8.51665 9.31665 10.2 9.5 12 9.5Z" fill="black"/>
</svg>
