<svg width="12" height="12" viewBox="0 0 12 12" fill="none" xmlns="http://www.w3.org/2000/svg">
<g clip-path="url(#clip0_417_1284)">
<path d="M7.875 3C7.875 2.50272 7.67746 2.02581 7.32583 1.67417C6.97419 1.32254 6.49728 1.125 6 1.125C5.50272 1.125 5.02581 1.32254 4.67417 1.67417C4.32254 2.02581 4.125 2.50272 4.125 3C4.125 3.49728 4.32254 3.97419 4.67417 4.32583C5.02581 4.67746 5.50272 4.875 6 4.875C6.49728 4.875 6.97419 4.67746 7.32583 4.32583C7.67746 3.97419 7.875 3.49728 7.875 3ZM3 3C3 2.20435 3.31607 1.44129 3.87868 0.87868C4.44129 0.316071 5.20435 0 6 0C6.79565 0 7.55871 0.316071 8.12132 0.87868C8.68393 1.44129 9 2.20435 9 3C9 3.79565 8.68393 4.55871 8.12132 5.12132C7.55871 5.68393 6.79565 6 6 6C5.20435 6 4.44129 5.68393 3.87868 5.12132C3.31607 4.55871 3 3.79565 3 3ZM1.90547 10.875H10.0945C9.88594 9.39141 8.61094 8.25 7.07109 8.25H4.92891C3.38906 8.25 2.11406 9.39141 1.90547 10.875ZM0.75 11.3039C0.75 8.99531 2.62031 7.125 4.92891 7.125H7.07109C9.37969 7.125 11.25 8.99531 11.25 11.3039C11.25 11.6883 10.9383 12 10.5539 12H1.44609C1.06172 12 0.75 11.6883 0.75 11.3039Z" fill="black"/>
</g>
<defs>
<clipPath id="clip0_417_1284">
<rect width="12" height="12" fill="white"/>
</clipPath>
</defs>
</svg>
