<svg width="24" height="24" viewBox="0 0 24 24" fill="none" xmlns="http://www.w3.org/2000/svg">
<path d="M2 22L12 12" stroke="black" stroke-width="2" stroke-linecap="round" stroke-linejoin="round"/>
<path d="M16.0001 8L14.8301 9.17" stroke="black" stroke-width="2" stroke-linecap="round" stroke-linejoin="round"/>
<path d="M3.46997 12.53L4.99997 11L6.52997 12.53C7.18337 13.186 7.55023 14.0741 7.55023 15C7.55023 15.9259 7.18337 16.814 6.52997 17.47L4.99997 19L3.46997 17.47C2.81657 16.814 2.44971 15.9259 2.44971 15C2.44971 14.0741 2.81657 13.186 3.46997 12.53Z" stroke="black" stroke-width="2" stroke-linecap="round" stroke-linejoin="round"/>
<path d="M7.99997 8L7.46997 8.53C6.81657 9.18598 6.44971 10.0741 6.44971 11C6.44971 11.9259 6.81657 12.814 7.46997 13.47L8.99997 15L10.53 13.47C11.08 12.92 11.41 12.22 11.51 11.5" stroke="black" stroke-width="2" stroke-linecap="round" stroke-linejoin="round"/>
<path d="M10.9102 5.26C11.0602 5 11.2502 4.75 11.4702 4.53L13.0002 3L14.5302 4.53C15.1312 5.13401 15.4913 5.93655 15.5429 6.78711C15.5944 7.63767 15.3339 8.47782 14.8102 9.15" stroke="black" stroke-width="2" stroke-linecap="round" stroke-linejoin="round"/>
<path d="M20 2H22V4C22 5.06087 21.5786 6.07828 20.8284 6.82843C20.0783 7.57857 19.0609 8 18 8H16V6C16 4.93913 16.4214 3.92172 17.1716 3.17157C17.9217 2.42143 18.9391 2 20 2Z" stroke="black" stroke-width="2" stroke-linecap="round" stroke-linejoin="round"/>
<path d="M11.47 17.47L13 19L11.47 20.53C10.814 21.1834 9.92587 21.5502 9 21.5502C8.07413 21.5502 7.18598 21.1834 6.53 20.53L5 19L6.53 17.47C7.18598 16.8166 8.07413 16.4497 9 16.4497C9.92587 16.4497 10.814 16.8166 11.47 17.47Z" stroke="black" stroke-width="2" stroke-linecap="round" stroke-linejoin="round"/>
<path d="M16 16L15.47 16.53C14.814 17.1834 13.9259 17.5503 13 17.5503C12.0741 17.5503 11.186 17.1834 10.53 16.53L9 15L10.53 13.47C11.0638 12.9395 11.7548 12.5957 12.5 12.49" stroke="black" stroke-width="2" stroke-linecap="round" stroke-linejoin="round"/>
<path d="M18.7401 13.09C19.0001 12.94 19.2501 12.75 19.4701 12.53L21.0001 11L19.4701 9.46998C18.8661 8.86891 18.0635 8.50883 17.213 8.45728C16.3624 8.40573 15.5223 8.66625 14.8501 9.18998" stroke="black" stroke-width="2" stroke-linecap="round" stroke-linejoin="round"/>
<path d="M2 2L22 22" stroke="black" stroke-width="2" stroke-linecap="round" stroke-linejoin="round"/>
</svg>
