<svg width="169" height="147" viewBox="0 0 169 147" fill="none" xmlns="http://www.w3.org/2000/svg">
<path d="M10.22 129V103.1H26.1115V106.208H13.328V113.571H23.799V116.679H13.328V125.892H26.1115V129H10.22ZM44.1721 110.5H47.2801V129H44.1721L44.0426 125.873C43.463 126.946 42.6613 127.816 41.6376 128.482C40.6263 129.148 39.4176 129.481 38.0116 129.481C36.655 129.481 35.3846 129.228 34.2006 128.722C33.0166 128.204 31.9683 127.495 31.0556 126.595C30.1553 125.682 29.4523 124.634 28.9466 123.45C28.441 122.266 28.1881 120.989 28.1881 119.62C28.1881 118.301 28.4348 117.055 28.9281 115.883C29.4215 114.712 30.106 113.688 30.9816 112.812C31.8696 111.924 32.8933 111.234 34.0526 110.74C35.212 110.235 36.4576 109.982 37.7896 109.982C39.245 109.982 40.5215 110.327 41.6191 111.018C42.7168 111.696 43.6048 112.578 44.2831 113.663L44.1721 110.5ZM37.9561 126.465C39.1771 126.465 40.2316 126.169 41.1196 125.577C42.02 124.973 42.7106 124.159 43.1916 123.135C43.685 122.112 43.9316 120.983 43.9316 119.75C43.9316 118.492 43.685 117.357 43.1916 116.346C42.6983 115.322 42.0015 114.514 41.1011 113.922C40.2131 113.318 39.1648 113.016 37.9561 113.016C36.7351 113.016 35.6251 113.318 34.6261 113.922C33.6271 114.527 32.8316 115.341 32.2396 116.364C31.66 117.376 31.3701 118.504 31.3701 119.75C31.3701 120.996 31.6723 122.13 32.2766 123.154C32.881 124.165 33.6826 124.973 34.6816 125.577C35.6806 126.169 36.7721 126.465 37.9561 126.465ZM60.5608 113.608H56.3613L56.3428 129H53.2348L53.2533 113.608H50.0713V110.5H53.2533L53.2348 104.691H56.3428L56.3613 110.5H60.5608V113.608Z" fill="#FD6941"/>
<path d="M75.8837 129.481C74.0954 129.481 72.4242 129.136 70.8702 128.445C69.3286 127.742 67.9781 126.774 66.8187 125.54C65.6717 124.295 64.7714 122.864 64.1177 121.248C63.4641 119.62 63.1372 117.881 63.1372 116.031C63.1372 114.12 63.4764 112.35 64.1547 110.722C64.8454 109.094 65.7827 107.676 66.9667 106.467C68.1631 105.258 69.5259 104.321 71.0552 103.655C72.5969 102.977 74.2249 102.637 75.9392 102.637C77.8879 102.637 79.7441 103.094 81.5077 104.006C83.2714 104.919 84.7884 106.239 86.0587 107.965L83.2837 109.464C82.3341 108.255 81.2056 107.33 79.8982 106.689C78.6032 106.048 77.2712 105.727 75.9022 105.727C74.5949 105.727 73.3554 105.992 72.1837 106.522C71.0244 107.053 69.9946 107.793 69.0942 108.742C68.2062 109.692 67.5094 110.79 67.0037 112.035C66.4981 113.281 66.2452 114.632 66.2452 116.087C66.2452 117.505 66.4981 118.837 67.0037 120.083C67.5094 121.329 68.2001 122.426 69.0757 123.376C69.9637 124.313 70.9936 125.047 72.1652 125.577C73.3369 126.108 74.5887 126.373 75.9207 126.373C76.9814 126.373 77.9866 126.194 78.9362 125.836C79.8982 125.479 80.7801 124.973 81.5817 124.319C82.3957 123.666 83.0864 122.895 83.6537 122.007C84.2334 121.119 84.6712 120.145 84.9672 119.084H78.5847V116.309H88.5932C88.5809 118.122 88.2356 119.824 87.5572 121.415C86.8912 123.006 85.9724 124.406 84.8007 125.614C83.6414 126.823 82.2971 127.773 80.7677 128.463C79.2507 129.142 77.6227 129.481 75.8837 129.481ZM92.1692 129V110.5H95.2772V112.812C95.9309 111.949 96.7572 111.265 97.7562 110.759C98.7552 110.241 99.8406 109.982 101.012 109.982C101.728 109.982 102.418 110.074 103.084 110.259L101.826 113.367C101.321 113.207 100.827 113.127 100.346 113.127C99.4212 113.127 98.5702 113.355 97.7932 113.811C97.0286 114.255 96.4181 114.86 95.9617 115.624C95.5054 116.389 95.2772 117.24 95.2772 118.177V129H92.1692ZM112.558 129.481C110.856 129.481 109.302 129.043 107.896 128.167C106.503 127.292 105.386 126.12 104.548 124.652C103.721 123.172 103.308 121.538 103.308 119.75C103.308 118.393 103.549 117.129 104.03 115.957C104.511 114.773 105.171 113.737 106.009 112.849C106.86 111.949 107.847 111.246 108.969 110.74C110.092 110.235 111.288 109.982 112.558 109.982C113.952 109.982 115.228 110.266 116.388 110.833C117.559 111.388 118.558 112.165 119.385 113.164C120.223 114.163 120.846 115.322 121.253 116.642C121.673 117.962 121.827 119.374 121.716 120.878H106.62C106.768 121.927 107.113 122.864 107.656 123.69C108.198 124.504 108.889 125.152 109.728 125.633C110.579 126.114 111.522 126.361 112.558 126.373C113.668 126.373 114.673 126.089 115.574 125.522C116.474 124.942 117.202 124.153 117.757 123.154L120.92 123.894C120.18 125.534 119.064 126.879 117.572 127.927C116.079 128.963 114.408 129.481 112.558 129.481ZM106.527 118.436H118.589C118.491 117.4 118.158 116.457 117.59 115.606C117.023 114.743 116.301 114.052 115.426 113.534C114.55 113.016 113.594 112.757 112.558 112.757C111.522 112.757 110.573 113.01 109.709 113.515C108.846 114.021 108.131 114.706 107.563 115.569C107.008 116.42 106.663 117.376 106.527 118.436ZM132.865 129.481C131.163 129.481 129.609 129.043 128.203 128.167C126.809 127.292 125.693 126.12 124.854 124.652C124.028 123.172 123.615 121.538 123.615 119.75C123.615 118.393 123.855 117.129 124.336 115.957C124.817 114.773 125.477 113.737 126.316 112.849C127.167 111.949 128.154 111.246 129.276 110.74C130.398 110.235 131.595 109.982 132.865 109.982C134.259 109.982 135.535 110.266 136.694 110.833C137.866 111.388 138.865 112.165 139.691 113.164C140.53 114.163 141.153 115.322 141.56 116.642C141.979 117.962 142.133 119.374 142.022 120.878H126.926C127.074 121.927 127.42 122.864 127.962 123.69C128.505 124.504 129.196 125.152 130.034 125.633C130.885 126.114 131.829 126.361 132.865 126.373C133.975 126.373 134.98 126.089 135.88 125.522C136.781 124.942 137.508 124.153 138.063 123.154L141.227 123.894C140.487 125.534 139.371 126.879 137.878 127.927C136.386 128.963 134.715 129.481 132.865 129.481ZM126.834 118.436H138.896C138.797 117.4 138.464 116.457 137.897 115.606C137.33 114.743 136.608 114.052 135.732 113.534C134.857 113.016 133.901 112.757 132.865 112.757C131.829 112.757 130.879 113.01 130.016 113.515C129.153 114.021 128.437 114.706 127.87 115.569C127.315 116.42 126.97 117.376 126.834 118.436ZM154.506 113.608H150.307L150.288 129H147.18L147.199 113.608H144.017V110.5H147.199L147.18 104.691H150.288L150.307 110.5H154.506V113.608Z" fill="black"/>
<path d="M117 41.3397C123.667 45.1887 123.667 54.8113 117 58.6603L72 84.641C65.3333 88.49 57 83.6788 57 75.9808V24.0192C57 16.3212 65.3333 11.51 72 15.359L117 41.3397Z" fill="#FD6941"/>
<path d="M93.7232 45.8898C94.1139 45.4991 94.3334 44.9692 94.3334 44.4167C94.3334 41.654 93.2359 39.0045 91.2824 37.051C89.3289 35.0975 86.6794 34 83.9167 34H71.4167C70.8642 34 70.3343 34.2195 69.9436 34.6102C69.5529 35.0009 69.3334 35.5308 69.3334 36.0833V42.3333H57V46.5H92.25C92.8026 46.5 93.3325 46.2805 93.7232 45.8898ZM73.5 42.3333V38.1667H83.9167C85.2097 38.166 86.4711 38.5664 87.5271 39.3126C88.583 40.0589 89.3815 41.1143 89.8125 42.3333H73.5Z" fill="white"/>
<path d="M93.7232 66.7231C94.1139 66.3324 94.3334 65.8025 94.3334 65.25C94.3334 64.6975 94.1139 64.1676 93.7232 63.7769C93.3325 63.3862 92.8026 63.1667 92.25 63.1667H80.875L79.4792 61.0833H92.25C92.8026 61.0833 93.3325 60.8638 93.7232 60.4731C94.1139 60.0824 94.3334 59.5525 94.3334 59C94.3334 58.4475 94.1139 57.9176 93.7232 57.5269C93.3325 57.1362 92.8026 56.9167 92.25 56.9167H79.4792L80.875 54.8333H92.25C92.8026 54.8333 93.3325 54.6138 93.7232 54.2231C94.1139 53.8324 94.3334 53.3025 94.3334 52.75C94.3334 52.1975 94.1139 51.6676 93.7232 51.2769C93.3325 50.8862 92.8026 50.6667 92.25 50.6667H79.75C79.4069 50.6684 79.0695 50.7549 78.7678 50.9185C78.4662 51.082 78.2096 51.3176 78.0209 51.6042L74.4584 56.9167H57V61.0833H74.4584L78.0209 66.3958C78.2096 66.6824 78.4662 66.9179 78.7678 67.0815C79.0695 67.245 79.4069 67.3316 79.75 67.3333H92.25C92.8026 67.3333 93.3325 67.1138 93.7232 66.7231Z" fill="white"/>
</svg>
