<svg width="158" height="38" viewBox="0 0 158 38" fill="none" xmlns="http://www.w3.org/2000/svg">
<path d="M36 15.2643C38.6667 16.8039 38.6667 20.6529 36 22.1925L10.5 36.9149C7.83334 38.4545 4.5 36.53 4.5 33.4508V4.00597C4.5 0.926767 7.83333 -0.997735 10.5 0.541866L36 15.2643Z" fill="#FD6941"/>
<path d="M23.7084 25.5201C23.7084 25.2438 23.5986 24.9788 23.4033 24.7835C23.2079 24.5881 22.943 24.4784 22.6667 24.4784H16.9792L16.2813 23.4367H22.6667C22.943 23.4367 23.2079 23.327 23.4033 23.1316C23.5986 22.9363 23.7084 22.6713 23.7084 22.3951C23.7084 22.1188 23.5986 21.8538 23.4033 21.6585C23.2079 21.4631 22.943 21.3534 22.6667 21.3534H16.2813L16.9792 20.3117H22.6667C22.943 20.3117 23.2079 20.202 23.4033 20.0066C23.5986 19.8113 23.7084 19.5463 23.7084 19.2701C23.7084 18.9938 23.5986 18.7288 23.4033 18.5335C23.2079 18.3381 22.943 18.2284 22.6667 18.2284H16.4167C16.2451 18.2293 16.0764 18.2725 15.9256 18.3543C15.7748 18.4361 15.6465 18.5539 15.5521 18.6971L13.7709 21.3534H4.16667V23.4367H13.7709L15.5521 26.093C15.6465 26.2363 15.7748 26.354 15.9256 26.4358C16.0764 26.5176 16.2451 26.5608 16.4167 26.5617H22.6667C22.943 26.5617 23.2079 26.452 23.4033 26.2566C23.5986 26.0613 23.7084 25.7963 23.7084 25.5201Z" fill="white"/>
<path d="M22.6667 16.1451C22.943 16.1451 23.2079 16.0353 23.4033 15.84C23.5986 15.6446 23.7084 15.3797 23.7084 15.1034C23.7084 13.7221 23.1596 12.3973 22.1829 11.4206C21.2061 10.4438 19.8814 9.89507 18.5 9.89507H12.25C11.9738 9.89507 11.7088 10.0048 11.5135 10.2002C11.3181 10.3955 11.2084 10.6605 11.2084 10.9367V14.0617H4.16667V16.1451H22.6667ZM13.2917 14.0617V11.9784H18.5C19.1466 11.9781 19.7773 12.1782 20.3052 12.5514C20.8332 12.9245 21.2325 13.4522 21.448 14.0617H13.2917Z" fill="white"/>
<path d="M48.68 28.7284V9.1284H60.706V11.4804H51.032V17.0524H58.956V19.4044H51.032V26.3764H60.706V28.7284H48.68ZM74.3735 14.7284H76.7255V28.7284H74.3735L74.2755 26.3624C73.8368 27.1744 73.2302 27.8324 72.4555 28.3364C71.6902 28.8404 70.7755 29.0924 69.7115 29.0924C68.6848 29.0924 67.7235 28.9011 66.8275 28.5184C65.9315 28.1264 65.1382 27.5897 64.4475 26.9084C63.7662 26.2177 63.2342 25.4244 62.8515 24.5284C62.4688 23.6324 62.2775 22.6664 62.2775 21.6304C62.2775 20.6317 62.4642 19.6891 62.8375 18.8024C63.2108 17.9157 63.7288 17.1411 64.3915 16.4784C65.0635 15.8064 65.8382 15.2837 66.7155 14.9104C67.5928 14.5277 68.5355 14.3364 69.5435 14.3364C70.6448 14.3364 71.6108 14.5977 72.4415 15.1204C73.2722 15.6337 73.9442 16.3011 74.4575 17.1224L74.3735 14.7284ZM69.6695 26.8104C70.5935 26.8104 71.3915 26.5864 72.0635 26.1384C72.7448 25.6811 73.2675 25.0651 73.6315 24.2904C74.0048 23.5157 74.1915 22.6617 74.1915 21.7284C74.1915 20.7764 74.0048 19.9177 73.6315 19.1524C73.2582 18.3777 72.7308 17.7664 72.0495 17.3184C71.3775 16.8611 70.5842 16.6324 69.6695 16.6324C68.7455 16.6324 67.9055 16.8611 67.1495 17.3184C66.3935 17.7757 65.7915 18.3917 65.3435 19.1664C64.9048 19.9317 64.6855 20.7857 64.6855 21.7284C64.6855 22.6711 64.9142 23.5297 65.3715 24.3044C65.8288 25.0697 66.4355 25.6811 67.1915 26.1384C67.9475 26.5864 68.7735 26.8104 69.6695 26.8104ZM86.7758 17.0804H83.5978L83.5838 28.7284H81.2318L81.2458 17.0804H78.8378V14.7284H81.2458L81.2318 10.3324H83.5838L83.5978 14.7284H86.7758V17.0804Z" fill="#FD6941"/>
<path d="M98.3715 29.0924C97.0181 29.0924 95.7535 28.8311 94.5775 28.3084C93.4108 27.7764 92.3888 27.0437 91.5115 26.1104C90.6435 25.1677 89.9621 24.0851 89.4675 22.8624C88.9728 21.6304 88.7255 20.3144 88.7255 18.9144C88.7255 17.4677 88.9821 16.1284 89.4955 14.8964C90.0181 13.6644 90.7275 12.5911 91.6235 11.6764C92.5288 10.7617 93.5601 10.0524 94.7175 9.5484C95.8841 9.03506 97.1161 8.7784 98.4135 8.7784C99.8881 8.7784 101.293 9.12373 102.627 9.8144C103.962 10.5051 105.11 11.5037 106.071 12.8104L103.971 13.9444C103.253 13.0297 102.399 12.3297 101.409 11.8444C100.429 11.3591 99.4215 11.1164 98.3855 11.1164C97.3961 11.1164 96.4581 11.3171 95.5715 11.7184C94.6941 12.1197 93.9148 12.6797 93.2335 13.3984C92.5615 14.1171 92.0341 14.9477 91.6515 15.8904C91.2688 16.8331 91.0775 17.8551 91.0775 18.9564C91.0775 20.0297 91.2688 21.0377 91.6515 21.9804C92.0341 22.9231 92.5568 23.7537 93.2195 24.4724C93.8915 25.1817 94.6708 25.7371 95.5575 26.1384C96.4441 26.5397 97.3915 26.7404 98.3995 26.7404C99.2021 26.7404 99.9628 26.6051 100.681 26.3344C101.409 26.0637 102.077 25.6811 102.683 25.1864C103.299 24.6917 103.822 24.1084 104.251 23.4364C104.69 22.7644 105.021 22.0271 105.245 21.2244H100.415V19.1244H107.989C107.98 20.4964 107.719 21.7844 107.205 22.9884C106.701 24.1924 106.006 25.2517 105.119 26.1664C104.242 27.0811 103.225 27.7997 102.067 28.3224C100.919 28.8357 99.6875 29.0924 98.3715 29.0924ZM110.696 28.7284V14.7284H113.048V16.4784C113.542 15.8251 114.168 15.3071 114.924 14.9244C115.68 14.5324 116.501 14.3364 117.388 14.3364C117.929 14.3364 118.452 14.4064 118.956 14.5464L118.004 16.8984C117.621 16.7771 117.248 16.7164 116.884 16.7164C116.184 16.7164 115.54 16.8891 114.952 17.2344C114.373 17.5704 113.911 18.0277 113.566 18.6064C113.22 19.1851 113.048 19.8291 113.048 20.5384V28.7284H110.696ZM126.125 29.0924C124.837 29.0924 123.661 28.7611 122.597 28.0984C121.542 27.4357 120.698 26.5491 120.063 25.4384C119.438 24.3184 119.125 23.0817 119.125 21.7284C119.125 20.7017 119.307 19.7451 119.671 18.8584C120.035 17.9624 120.534 17.1784 121.169 16.5064C121.813 15.8251 122.56 15.2931 123.409 14.9104C124.258 14.5277 125.164 14.3364 126.125 14.3364C127.18 14.3364 128.146 14.5511 129.023 14.9804C129.91 15.4004 130.666 15.9884 131.291 16.7444C131.926 17.5004 132.397 18.3777 132.705 19.3764C133.022 20.3751 133.139 21.4437 133.055 22.5824H121.631C121.743 23.3757 122.004 24.0851 122.415 24.7104C122.826 25.3264 123.348 25.8164 123.983 26.1804C124.627 26.5444 125.341 26.7311 126.125 26.7404C126.965 26.7404 127.726 26.5257 128.407 26.0964C129.088 25.6577 129.639 25.0604 130.059 24.3044L132.453 24.8644C131.893 26.1057 131.048 27.1231 129.919 27.9164C128.79 28.7004 127.525 29.0924 126.125 29.0924ZM121.561 20.7344H130.689C130.614 19.9504 130.362 19.2364 129.933 18.5924C129.504 17.9391 128.958 17.4164 128.295 17.0244C127.632 16.6324 126.909 16.4364 126.125 16.4364C125.341 16.4364 124.622 16.6277 123.969 17.0104C123.316 17.3931 122.774 17.9111 122.345 18.5644C121.925 19.2084 121.664 19.9317 121.561 20.7344ZM141.492 29.0924C140.204 29.0924 139.028 28.7611 137.964 28.0984C136.91 27.4357 136.065 26.5491 135.43 25.4384C134.805 24.3184 134.492 23.0817 134.492 21.7284C134.492 20.7017 134.674 19.7451 135.038 18.8584C135.402 17.9624 135.902 17.1784 136.536 16.5064C137.18 15.8251 137.927 15.2931 138.776 14.9104C139.626 14.5277 140.531 14.3364 141.492 14.3364C142.547 14.3364 143.513 14.5511 144.39 14.9804C145.277 15.4004 146.033 15.9884 146.658 16.7444C147.293 17.5004 147.764 18.3777 148.072 19.3764C148.39 20.3751 148.506 21.4437 148.422 22.5824H136.998C137.11 23.3757 137.372 24.0851 137.782 24.7104C138.193 25.3264 138.716 25.8164 139.35 26.1804C139.994 26.5444 140.708 26.7311 141.492 26.7404C142.332 26.7404 143.093 26.5257 143.774 26.0964C144.456 25.6577 145.006 25.0604 145.426 24.3044L147.82 24.8644C147.26 26.1057 146.416 27.1231 145.286 27.9164C144.157 28.7004 142.892 29.0924 141.492 29.0924ZM136.928 20.7344H146.056C145.982 19.9504 145.73 19.2364 145.3 18.5924C144.871 17.9391 144.325 17.4164 143.662 17.0244C143 16.6324 142.276 16.4364 141.492 16.4364C140.708 16.4364 139.99 16.6277 139.336 17.0104C138.683 17.3931 138.142 17.9111 137.712 18.5644C137.292 19.2084 137.031 19.9317 136.928 20.7344ZM157.87 17.0804H154.692L154.678 28.7284H152.326L152.34 17.0804H149.932V14.7284H152.34L152.326 10.3324H154.678L154.692 14.7284H157.87V17.0804Z" fill="#070A08"/>
</svg>
